<?xml version="1.0" encoding="UTF-8"?>
<svg version="1.1" xmlns="http://www.w3.org/2000/svg" xmlns:xlink="http://www.w3.org/1999/xlink">
<defs>

</defs>
<symbol id="i-apps" xmlns="http://www.w3.org/2000/svg" aria-hidden="true" style="-ms-transform:rotate(360deg);-webkit-transform:rotate(360deg)" viewBox="0 0 512 512" transform="rotate(360)"><path d="M104 160a56 56 0 1156-56 56.06 56.06 0 01-56 56zM256 160a56 56 0 1156-56 56.06 56.06 0 01-56 56zM408 160a56 56 0 1156-56 56.06 56.06 0 01-56 56zM104 312a56 56 0 1156-56 56.06 56.06 0 01-56 56zM256 312a56 56 0 1156-56 56.06 56.06 0 01-56 56zM408 312a56 56 0 1156-56 56.06 56.06 0 01-56 56zM104 464a56 56 0 1156-56 56.06 56.06 0 01-56 56zM256 464a56 56 0 1156-56 56.06 56.06 0 01-56 56zM408 464a56 56 0 1156-56 56.06 56.06 0 01-56 56z"/></symbol>
<symbol id="i-attach-file" xmlns="http://www.w3.org/2000/svg" viewBox="0 0 24 24"><path d="M16.5 6v11.5c0 2.21-1.79 4-4 4s-4-1.79-4-4V5a2.5 2.5 0 015 0v10.5c0 .55-.45 1-1 1s-1-.45-1-1V6H10v9.5a2.5 2.5 0 005 0V5c0-2.21-1.79-4-4-4S7 2.79 7 5v12.5c0 3.04 2.46 5.5 5.5 5.5s5.5-2.46 5.5-5.5V6h-1.5z"/></symbol>
<symbol id="i-description" xmlns="http://www.w3.org/2000/svg" viewBox="0 0 24 24"><path d="M0 0h24v24H0z" fill="none"/><path d="M14 2H6c-1.1 0-1.99.9-1.99 2L4 20c0 1.1.89 2 1.99 2H18c1.1 0 2-.9 2-2V8l-6-6zm2 16H8v-2h8v2zm0-4H8v-2h8v2zm-3-5V3.5L18.5 9H13z"/></symbol>
<symbol id="i-image" xmlns="http://www.w3.org/2000/svg" viewBox="0 0 24 24"><path d="M0 0h24v24H0z" fill="none"/><path d="M21 19V5c0-1.1-.9-2-2-2H5c-1.1 0-2 .9-2 2v14c0 1.1.9 2 2 2h14c1.1 0 2-.9 2-2zM8.5 13.5l2.5 3.01L14.5 12l4.5 6H5l3.5-4.5z"/></symbol>
<symbol id="i-paper-plane" xmlns="http://www.w3.org/2000/svg" aria-hidden="true" viewBox="0 0 512 512"><path d="M473 39.05a24 24 0 00-25.5-5.46L47.47 185h-.08a24 24 0 001 45.16l.41.13 137.3 58.63a16 16 0 0015.54-3.59L422 80a7.07 7.07 0 0110 10L226.66 310.26a16 16 0 00-3.59 15.54l58.65 137.38c.06.2.12.38.19.57 3.2 9.27 11.3 15.81 21.09 16.25h1a24.63 24.63 0 0023-15.46L478.39 64.62A24 24 0 00473 39.05z"/></symbol>
</svg>